PathFileType	3	(X/Y/Z)	C:\Users\koon_\Desktop\
DataRate	CameraRate	NumFrames	NumMarkers	Units	OrigDataRate	OrigDataStartFrame	OrigNumFrames
100.0	100.0	5	27	mm	100.0	3395	4526	
Frame#	Time	GM:LFHD			GM:RFHD			GM:LBHD			GM:RBHD			GM:C7			GM:T10			GM:CLAV			GM:STRN			GM:RBAK			GM:LSHO			GM:LUPA			GM:LELB			GM:LFRA			GM:LWRA			GM:LWRB			GM:LFIN			GM:RSHO			GM:RUPA			GM:RELB			GM:RFRA			GM:RWRA			GM:RWRB			GM:RFIN			GM:LASI			GM:RASI			GM:LPSI			GM:RPSI			
		X1	Y1	Z1	X2	Y2	Z2	X3	Y3	Z3	X4	Y4	Z4	X5	Y5	Z5	X6	Y6	Z6	X7	Y7	Z7	X8	Y8	Z8	X9	Y9	Z9	X10	Y10	Z10	X11	Y11	Z11	X12	Y12	Z12	X13	Y13	Z13	X14	Y14	Z14	X15	Y15	Z15	X16	Y16	Z16	X17	Y17	Z17	X18	Y18	Z18	X19	Y19	Z19	X20	Y20	Z20	X21	Y21	Z21	X22	Y22	Z22	X23	Y23	Z23	X24	Y24	Z24	X25	Y25	Z25	X26	Y26	Z26	X27	Y27	Z27	
3395	33.94	65.643227	1552.1665	-42.312244	-85.846077	1574.2249	-65.164253	90.340843	1581.2809	-170.55785	-72.665146	1601.5344	-177.3727	-0.64435524	1421.423	-279.06067	13.382669	1211.7906	-306.13922	-4.9161181	1373.1825	-125.80482	2.9331214	1234.6692	-61.740726	-71.362617	1292.4651	-329.11163	110.8586	1433.3865	-254.02531	178.62007	1481.3038	-254.929	343.95642	1580.7264	-195.71819	290.50787	1720.2108	-188.23047	289.35446	1795.2837	-183.75479	350.60281	1801.4406	-159.58101	297.71335	1884.7638	-184.24869	-180.47192	1389.9777	-223.33521	-240.60989	1159.8042	-230.62044	-258.34625	1073.6718	-277.79721	-251.13634	1025.437	-195.98927	-247.2724	901.23486	-148.90698	-261.49667	874.22205	-202.57025	-272.48087	818.81555	-127.4649	135.13863	905.36804	-81.294556	-156.70117	912.40649	-93.115601	74.996765	943.87048	-294.4035	-86.555367	930.46771	-301.32556
3396	33.95	66.04306	1550.7549	-40.664639	-85.267189	1573.7788	-64.332191	91.752075	1580.4264	-168.46053	-71.274155	1601.6493	-176.25516	-0.023408882	1421.7672	-278.74261	13.889264	1211.8669	-306.0719	-4.515552	1373.3085	-125.68784	3.2185764	1234.8784	-61.577656	-70.75148	1292.5946	-328.92291	110.38233	1433.4928	-254.55797	176.56033	1482.2198	-256.00742	339.26297	1586.3738	-197.69252	276.69751	1722.7227	-193.843	270.10907	1797.2408	-190.41948	330.70532	1808.1827	-166.4057	273.18695	1886.9176	-194.34987	-179.93581	1390.2	-223.2746	-240.1051	1160.0015	-230.92233	-258.06741	1073.9834	-278.70032	-250.73981	1025.589	-196.34871	-247.18761	901.33136	-149.34367	-260.21631	874.30536	-203.2326	-272.479	818.93909	-127.95271	135.21262	905.31464	-81.210617	-156.54124	912.49115	-93.258324	75.298538	943.92596	-294.28067	-86.264832	930.53265	-301.42587
3397	33.96	66.319153	1549.3663	-39.021255	-84.608505	1573.2386	-63.417122	92.66114	1579.809	-166.75546	-69.979561	1601.7582	-175.17032	0.62328476	1422.1464	-278.40887	14.420745	1211.9297	-305.84174	-4.1550593	1373.4164	-125.50072	3.5219839	1235.1973	-61.33662	-70.161087	1292.8254	-328.79272	109.95396	1433.5154	-254.92972	174.72733	1482.9171	-257.0032	334.66696	1591.5248	-199.68953	263.07977	1723.7804	-199.99327	251.29881	1797.4572	-197.76357	310.53726	1813.4364	-173.38483	248.39253	1887.0479	-204.55061	-179.44591	1390.3809	-223.22063	-239.62106	1160.2096	-231.19328	-257.43939	1074.2261	-278.9657	-250.35054	1025.7532	-196.61148	-247.05269	901.40118	-149.7717	-259.96255	874.50232	-203.62076	-272.46271	819.01129	-128.54706	135.37944	905.2381	-81.108139	-156.41219	912.55591	-93.368958	75.571182	944.02271	-294.19449	-85.905441	930.58417	-301.50119
3398	33.97	66.593666	1548.0435	-37.386108	-84.141418	1572.8477	-62.419937	94.106216	1578.9979	-164.90404	-68.770226	1601.7915	-173.94675	1.2432965	1422.5006	-277.99033	14.88276	1212.0399	-305.78058	-3.7969654	1373.5066	-125.35593	3.7719672	1235.4459	-61.191299	-69.593437	1293.0402	-328.7034	109.61151	1433.4879	-255.34851	173.02422	1483.4514	-258.08044	330.17969	1596.3575	-201.7485	250.0448	1723.7625	-205.51753	232.83673	1796.2064	-205.2144	290.11014	1817.1984	-180.03874	224.05643	1885.332	-214.02946	-178.90585	1390.5712	-223.20151	-239.1629	1160.437	-231.36588	-256.80246	1074.3586	-279.17709	-249.98885	1025.9022	-196.86465	-246.96141	901.53278	-150.14049	-260.30057	874.71478	-204.14738	-272.29233	819.08282	-129.03171	135.53633	905.18506	-81.083885	-156.18224	912.67047	-93.379753	75.855827	944.05927	-294.07892	-85.635986	930.62097	-301.55322
3399	33.98	66.814667	1546.7771	-35.865189	-83.41288	1572.2356	-61.760963	94.974327	1578.313	-162.90681	-67.764748	1601.8134	-172.83014	1.8228421	1422.7985	-277.60516	15.313153	1212.1646	-305.62564	-3.4266889	1373.5725	-125.16883	4.0214105	1235.6624	-61.037506	-69.106712	1293.2343	-328.53741	109.29256	1433.4174	-255.71223	171.46202	1483.8752	-259.06784	325.74878	1600.741	-203.87621	238.68661	1723.1074	-212.23744	214.67569	1793.2872	-212.49399	270.27673	1818.9148	-187.24075	200.0407	1881.5858	-223.65335	-178.40456	1390.844	-223.20737	-238.73814	1160.6216	-231.51163	-256.23038	1074.6062	-279.52176	-249.67612	1026.0591	-197.11768	-246.8656	901.59412	-150.46039	-259.90488	874.82813	-204.55318	-272.23642	819.18604	-129.54514	135.68562	905.13226	-81.00473	-156.00603	912.67755	-93.446838	76.165741	944.07245	-294.07779	-85.34922	930.70886	-301.59064
